<svg viewBox="0 -124 512 512" xmlns="http://www.w3.org/2000/svg"><path d="m431.132812 221.71875h-350.265624v-217.71875c0-2.210938 1.792968-4 4-4h342.265624c2.207032 0 4 1.789062 4 4zm0 0" fill="#84665c"/><path d="m431.132812 221.71875h-30.90625v-221.71875h26.90625c2.207032 0 4 1.789062 4 4zm0 0" fill="#70554c"/><path d="m431.132812 30.9375h-350.265624v-26.9375c0-2.210938 1.792968-4 4-4h342.265624c2.207032 0 4 1.789062 4 4zm0 0" fill="#5a443d"/><path d="m400.214844 264h-288.429688c-11.386718 0-20.613281-9.230469-20.613281-20.613281v-21.667969h329.65625v21.667969c0 11.382812-9.226563 20.613281-20.613281 20.613281zm0 0" fill="#ded7cb"/><g fill="#654d45"><path d="m275.238281 88.785156c-5.507812-.355468-5.199219-5.136718-5.082031-6.9375.167969-2.613281.890625-4.394531 2.144531-5.292968 3.367188-2.410157 4.136719-7.097657 1.726563-10.464844-2.414063-3.367188-7.101563-4.136719-10.464844-1.726563-3.496094 2.503907-7.785156 7.402344-8.375 16.511719-.960938 14.804688 9.214844 22.238281 19.074219 22.878906.167969.011719.332031.015625.496093.015625 3.917969 0 7.21875-3.042969 7.476563-7.011719.269531-4.132812-2.863281-7.699218-6.996094-7.972656zm0 0"/><path d="m238.238281 147.367188c-3.089843-2.753907-7.832031-2.480469-10.585937.609374-.359375.402344-1.664063 1.738282-3.351563 2.003907-1.515625.238281-3.277343-.523438-5.226562-2.265625-1.953125-1.742188-2.910157-3.410156-2.84375-4.953125.171875-4.140625-3.039063-7.636719-7.179688-7.808594-4.105469-.1875-7.632812 3.039063-7.808593 7.179687-.179688 4.292969 1.035156 10.6875 7.839843 16.769532 5.394531 4.820312 10.59375 6.121094 14.632813 6.121094 1.054687 0 2.035156-.089844 2.914062-.226563 6.195313-.976563 10.3125-4.703125 12.21875-6.839844 2.757813-3.089843 2.484375-7.832031-.609375-10.589843zm0 0"/><path d="m148.847656 83.929688c-4.304687 1.015624-10.304687 4.007812-14.4375 12.46875-6.707031 13.734374.078125 24.800781 9.214844 29.273437 1.0625.519531 2.183594.765625 3.292969.765625 2.773437 0 5.441406-1.546875 6.742187-4.207031 1.820313-3.722657.277344-8.214844-3.441406-10.035157-5.511719-2.695312-3.117188-7.601562-2.328125-9.210937 1.25-2.5625 2.730469-4.058594 4.40625-4.457031 4.03125-.953125 6.527344-4.992188 5.574219-9.023438-.949219-4.03125-4.992188-6.523437-9.023438-5.574218zm0 0"/><path d="m345.296875 152.582031c-4.648437-.273437-10.070313-2.617187-9.503906-12.242187.242187-4.132813-2.914063-7.683594-7.046875-7.925782-4.128906-.226562-7.683594 2.914063-7.929688 7.046876-1.078125 18.386718 11.074219 27.359374 23.597656 28.097656.148438.007812.300782.011718.445313.011718 3.941406 0 7.246094-3.074218 7.480469-7.058593.246094-4.132813-2.910156-7.683594-7.042969-7.929688zm0 0"/></g><path d="m485.199219 237.1875h-458.398438c-14.804687 0-26.800781-12-26.800781-26.796875v-.019531c0-2.273438 1.847656-4.121094 4.121094-4.121094h503.757812c2.273438 0 4.121094 1.847656 4.121094 4.121094v.019531c0 14.796875-11.996094 26.796875-26.800781 26.796875zm0 0" fill="#f0e9dc"/><path d="m507.878906 206.25h-30.90625c2.277344 0 4.121094 1.847656 4.121094 4.125 0 14.808594-11.992188 26.8125-26.785156 26.8125h30.90625c14.792968 0 26.785156-12.003906 26.785156-26.8125 0-2.277344-1.84375-4.125-4.121094-4.125zm0 0" fill="#ded7cb"/></svg>