<?xml version="1.0" encoding="iso-8859-1"?>
<!-- Generator: Adobe Illustrator 19.0.0, SVG Export Plug-In . SVG Version: 6.00 Build 0)  -->
<svg version="1.1" id="Layer_1" xmlns="http://www.w3.org/2000/svg" xmlns:xlink="http://www.w3.org/1999/xlink" x="0px" y="0px"
	 viewBox="0 0 512 512" style="enable-background:new 0 0 512 512;" xml:space="preserve">
<g>
	<path style="fill:#FFDFE0;" d="M477.904,356.121v58.117c-31.701,0-31.701-21.134-63.401-21.134
		c-31.806,0-31.806,21.134-63.507,21.134s-31.701-21.134-63.401-21.134c-31.701,0-31.701,21.134-63.401,21.134
		s-31.701-21.134-63.401-21.134c-31.595,0-31.595,21.134-63.295,21.134c-31.701,0-31.701-21.134-63.401-21.134v-36.983
		c0-5.812,4.755-10.567,10.567-10.567h31.701h359.273h31.698C473.149,345.554,477.904,350.309,477.904,356.121z"/>
	<path style="fill:#FFDFE0;" d="M435.636,229.319v58.117c-25.677,0-25.677-21.134-51.355-21.134
		c-25.677,0-25.677,21.134-51.355,21.134s-25.677-21.134-51.355-21.134c-25.677,0-25.677,21.134-51.355,21.134
		c-25.572,0-25.572-21.134-51.249-21.134s-25.677,21.134-51.355,21.134c-25.572,0-25.572-21.134-51.249-21.134v-36.984
		c0-5.812,4.755-10.567,10.567-10.567h36.984h264.172h36.983C430.881,218.752,435.636,223.508,435.636,229.319z"/>
	<path style="fill:#FFDFE0;" d="M388.086,118.367v52.834c-18.915,0-18.915-21.134-37.83-21.134
		c-18.809,0-18.809,21.134-37.724,21.134s-18.915-21.134-37.724-21.134c-18.915,0-18.915,21.134-37.724,21.134
		c-18.915,0-18.915-21.134-37.724-21.134c-18.915,0-18.915,21.134-37.724,21.134c-18.915,0-18.915-21.134-37.724-21.134v-31.701
		c0-5.812,4.755-10.567,10.567-10.567h117.82c2.431,0.212,4.967,0.212,7.397,0h117.82
		C383.331,107.8,388.086,112.555,388.086,118.367z"/>
</g>
<g>
	<path style="fill:#FE84B3;" d="M414.503,393.105c-31.806,0-31.806,21.134-63.507,21.134c-31.701,0-31.701-21.134-63.401-21.134
		c-31.701,0-31.701,21.134-63.401,21.134s-31.701-21.134-63.401-21.134c-31.595,0-31.595,21.134-63.295,21.134
		c-31.701,0-31.701-21.134-63.401-21.134v110.952h443.808v-89.818C446.203,414.239,446.203,393.105,414.503,393.105z"/>
	<path style="fill:#FE84B3;" d="M435.636,287.437v58.117H76.364v-79.251c25.677,0,25.677,21.134,51.249,21.134
		c25.677,0,25.677-21.134,51.355-21.134c25.677,0,25.677,21.134,51.249,21.134c25.677,0,25.677-21.134,51.355-21.134
		c25.677,0,25.677,21.134,51.355,21.134c25.678,0,25.677-21.134,51.355-21.134C409.959,266.303,409.959,287.437,435.636,287.437z"/>
	<path style="fill:#FE84B3;" d="M274.81,150.067c18.809,0,18.809,21.134,37.724,21.134s18.915-21.134,37.724-21.134
		c18.915,0,18.915,21.134,37.83,21.134v47.55H123.914v-68.684c18.809,0,18.809,21.134,37.724,21.134
		c18.809,0,18.809-21.134,37.724-21.134c18.809,0,18.809,21.134,37.724,21.134C255.895,171.201,255.895,150.067,274.81,150.067z"/>
</g>
<path style="fill:#EC3C72;" d="M316.337,16.925c12.046,11.941,12.046,31.489,0,43.43L277.768,99.03
	c-4.967,5.072-11.412,8.031-18.07,8.771h-7.397c-6.657-0.739-13.103-3.699-18.07-8.771l-38.569-38.675
	c-12.047-11.941-12.047-31.489,0-43.43c11.941-11.941,31.489-11.941,43.43,0L256,33.831l16.907-16.907
	C284.848,4.985,304.396,4.985,316.337,16.925z"/>
<g>
	<path style="fill:#FACAD4;" d="M160.793,393.105c31.701,0,31.701,21.134,63.401,21.134c15.92,0,23.847-5.33,31.806-10.637v-58.047
		H76.364H44.663c-5.812,0-10.567,4.755-10.567,10.567v36.983c31.701,0,31.701,21.134,63.401,21.134
		C129.198,414.239,129.198,393.105,160.793,393.105z"/>
	<path style="fill:#FACAD4;" d="M178.968,266.303c25.677,0,25.677,21.134,51.249,21.134c12.909,0,19.328-5.341,25.783-10.653
		v-58.032H123.914H86.931c-5.812,0-10.567,4.755-10.567,10.567v36.984c25.677,0,25.677,21.134,51.249,21.134
		C153.29,287.437,153.29,266.303,178.968,266.303z"/>
	<path style="fill:#FACAD4;" d="M161.638,171.201c18.809,0,18.809-21.134,37.724-21.134c18.809,0,18.809,21.134,37.724,21.134
		c9.464,0,14.168-5.349,18.915-10.667V107.8c-1.241,0-2.483,0.105-3.698,0H134.481c-5.812,0-10.567,4.755-10.567,10.567v31.701
		C142.723,150.067,142.723,171.201,161.638,171.201z"/>
</g>
<g>
	<path style="fill:#F067A3;" d="M224.194,414.239c-31.701,0-31.701-21.134-63.401-21.134c-31.595,0-31.595,21.134-63.295,21.134
		c-31.701,0-31.701-21.134-63.401-21.134v110.952h221.904V403.602C248.041,408.909,240.114,414.239,224.194,414.239z"/>
	<path style="fill:#F067A3;" d="M256.001,276.783c-6.455,5.312-12.874,10.653-25.783,10.653c-25.571,0-25.571-21.134-51.249-21.134
		s-25.677,21.134-51.355,21.134c-25.572,0-25.572-21.134-51.249-21.134v79.251h179.637V276.783z"/>
	<path style="fill:#F067A3;" d="M256.001,160.535c-4.746,5.317-9.449,10.667-18.915,10.667c-18.915,0-18.915-21.134-37.724-21.134
		c-18.915,0-18.915,21.134-37.724,21.134c-18.915,0-18.915-21.134-37.724-21.134v68.684H256v-58.217H256.001z"/>
</g>
<g>
	<polygon style="fill:#FFFFFF;" points="256.001,87.335 208.116,39.45 219.35,28.214 256.001,64.865 292.65,28.214 303.885,39.45 	
		"/>
	<rect x="171.47" y="300.625" style="fill:#FFFFFF;" width="21.134" height="15.889"/>
	<rect x="271.854" y="300.625" style="fill:#FFFFFF;" width="21.134" height="15.889"/>
	<rect x="377.514" y="300.625" style="fill:#FFFFFF;" width="21.134" height="15.889"/>
</g>
<rect x="65.8" y="453.844" width="380.405" height="15.889"/>
<rect x="187.316" y="179.109" width="21.134" height="15.889"/>
<rect x="266.569" y="179.109" width="21.134" height="15.889"/>
<rect x="340.536" y="179.109" width="21.134" height="15.889"/>
<path d="M467.337,337.61h-23.756V229.319c0-10.207-8.304-18.511-18.511-18.511h-29.039v-92.441c0-10.207-8.304-18.511-18.511-18.511
	h-89.355l33.765-33.859c7.343-7.278,11.386-16.993,11.386-27.357s-4.043-20.079-11.361-27.333
	c-7.275-7.276-16.982-11.282-27.332-11.282c-10.35,0-20.057,4.007-27.333,11.282l-11.289,11.289l-11.289-11.289
	c-15.072-15.072-39.594-15.071-54.64-0.025c-7.343,7.278-11.387,16.994-11.387,27.357s4.043,20.079,11.354,27.324l33.799,33.891
	h-89.356c-10.207,0-18.511,8.304-18.511,18.511v92.441H86.93c-10.207,0-18.511,8.303-18.511,18.511v108.292H44.663
	c-10.207,0-18.511,8.303-18.511,18.511V512h459.697V356.121C485.849,345.914,477.544,337.61,467.337,337.61z M239.858,93.42
	l-38.602-38.708c-4.309-4.272-6.683-9.98-6.683-16.073s2.374-11.801,6.708-16.097c8.875-8.875,23.318-8.875,32.196,0l22.525,22.525
	l22.525-22.525c4.274-4.274,9.992-6.629,16.097-6.629c6.105,0,11.823,2.355,16.122,6.653c4.309,4.272,6.683,9.98,6.683,16.073
	s-2.374,11.801-6.716,16.106l-38.62,38.726c-3.435,3.508-8.02,5.761-12.938,6.384h-6.308
	C247.928,99.233,243.343,96.979,239.858,93.42z M134.481,115.745h243.038c1.422,0,2.623,1.201,2.623,2.623v42.071
	c-1.579-1.28-3.152-2.98-5.052-5.101c-4.99-5.577-11.825-13.213-24.834-13.213c-12.949,0-19.758,7.629-24.73,13.199
	c-4.653,5.214-7.345,7.935-12.995,7.935c-5.65,0-8.34-2.72-12.994-7.935c-4.971-5.571-11.781-13.199-24.73-13.199
	c-13.029,0-19.861,7.655-24.849,13.244c-4.756,5.329-7.29,7.89-12.875,7.89c-5.65,0-8.342-2.72-12.995-7.935
	c-4.971-5.571-11.781-13.199-24.729-13.199c-13.029,0-19.861,7.655-24.849,13.244c-4.756,5.329-7.29,7.89-12.876,7.89
	c-5.649,0-8.34-2.72-12.994-7.935c-3.837-4.299-8.782-9.81-16.786-12.107v-24.848C131.859,116.945,133.06,115.745,134.481,115.745z
	 M131.859,160.868c1.514,1.255,3.049,2.925,4.932,5.035c4.988,5.589,11.819,13.243,24.848,13.243
	c12.949,0,19.758-7.629,24.73-13.199c4.653-5.214,7.345-7.935,12.995-7.935c5.585,0,8.119,2.561,12.875,7.89
	c4.988,5.589,11.82,13.244,24.849,13.244c12.949,0,19.758-7.629,24.729-13.199c4.653-5.214,7.345-7.935,12.995-7.935
	c5.585,0,8.119,2.561,12.876,7.89c4.988,5.589,11.82,13.243,24.848,13.243c13.029,0,19.861-7.654,24.848-13.244
	c4.756-5.328,7.29-7.89,12.876-7.89c5.643,0,8.336,2.716,12.995,7.92c3.857,4.31,8.83,9.836,16.89,12.13v32.745H131.859V160.868z
	 M86.93,226.697h338.139c1.422,0,2.623,1.201,2.623,2.623v49.146c-5.07-1.464-8.58-4.35-12.685-7.729
	c-6.7-5.514-15.038-12.377-30.725-12.377c-15.687,0-24.026,6.863-30.725,12.377c-5.944,4.893-10.639,8.757-20.629,8.757
	c-9.99,0-14.684-3.864-20.629-8.757c-6.7-5.514-15.038-12.377-30.725-12.377c-15.688,0-24.027,6.863-30.726,12.377
	c-5.944,4.893-10.639,8.757-20.629,8.757c-9.92,0-14.593-3.855-20.51-8.736c-6.698-5.524-15.034-12.398-30.739-12.398
	c-15.688,0-24.027,6.863-30.726,12.377c-5.944,4.893-10.639,8.757-20.629,8.757c-9.92,0-14.593-3.855-20.51-8.736
	c-5.467-4.508-12.029-9.913-22.794-11.749v-29.689C84.308,227.897,85.51,226.697,86.93,226.697z M84.308,275.275
	c5.073,1.466,8.582,4.357,12.685,7.74c6.68,5.509,14.994,12.366,30.619,12.366c15.687,0,24.026-6.863,30.725-12.377
	c5.944-4.893,10.639-8.757,20.63-8.757c9.998,0,14.69,3.869,20.63,8.767c6.681,5.509,14.994,12.366,30.619,12.366
	c15.687,0,24.026-6.863,30.725-12.377c5.944-4.893,10.639-8.757,20.63-8.757c9.99,0,14.684,3.864,20.629,8.757
	c6.7,5.514,15.038,12.377,30.725,12.377c15.688,0,24.027-6.863,30.726-12.377c5.944-4.893,10.639-8.757,20.629-8.757
	c9.99,0,14.684,3.864,20.629,8.757c5.467,4.5,12.03,9.894,22.782,11.728v42.879H84.308V275.275z M44.663,353.499h422.674
	c1.422,0,2.623,1.201,2.623,2.623v49.577c-8.367-1.335-13.558-4.775-19.35-8.636c-8.367-5.578-17.851-11.901-36.106-11.901
	c-18.319,0-27.826,6.328-36.214,11.911c-7.436,4.949-13.857,9.223-27.292,9.223c-13.445,0-19.863-4.278-27.295-9.232
	c-8.368-5.578-17.851-11.901-36.107-11.901c-18.256,0-27.74,6.323-36.107,11.901c-7.432,4.954-13.849,9.232-27.293,9.232
	c-13.445,0-19.863-4.278-27.295-9.232c-8.367-5.578-17.851-11.901-36.107-11.901c-18.192,0-27.653,6.317-35.999,11.891
	c-7.426,4.959-13.84,9.243-27.296,9.243c-13.445,0-19.863-4.278-27.295-9.232c-7.056-4.704-14.928-9.922-28.163-11.447v-29.493
	C42.04,354.7,43.242,353.499,44.663,353.499z M42.04,496.113v-94.467c8.367,1.335,13.558,4.775,19.35,8.636
	c8.367,5.578,17.851,11.901,36.107,11.901c18.272,0,27.754-6.332,36.119-11.918c7.405-4.946,13.801-9.216,27.176-9.216
	c13.445,0,19.863,4.278,27.295,9.232c8.367,5.578,17.851,11.901,36.107,11.901c18.255,0,27.739-6.323,36.106-11.901
	c7.432-4.954,13.849-9.232,27.295-9.232c13.445,0,19.863,4.278,27.295,9.232c8.367,5.578,17.851,11.901,36.107,11.901
	c18.239,0,27.726-6.314,36.095-11.885c7.457-4.964,13.897-9.249,27.412-9.249c13.445,0,19.862,4.278,27.293,9.232
	c7.056,4.704,14.928,9.922,28.163,11.447v74.383H42.04V496.113z"/>
<g>
</g>
<g>
</g>
<g>
</g>
<g>
</g>
<g>
</g>
<g>
</g>
<g>
</g>
<g>
</g>
<g>
</g>
<g>
</g>
<g>
</g>
<g>
</g>
<g>
</g>
<g>
</g>
<g>
</g>
</svg>
