<?xml version="1.0" encoding="iso-8859-1"?>
<!-- Generator: Adobe Illustrator 19.0.0, SVG Export Plug-In . SVG Version: 6.00 Build 0)  -->
<svg version="1.1" id="Capa_1" xmlns="http://www.w3.org/2000/svg" xmlns:xlink="http://www.w3.org/1999/xlink" x="0px" y="0px"
	 viewBox="0 0 511.998 511.998" style="enable-background:new 0 0 511.998 511.998;" xml:space="preserve">
<path style="fill:#F09E3E;" d="M9.077,331.306l79.371,26.089l35.315-43.482L43.068,210.44
	C3.338,236.732-11.124,288.168,9.077,331.306z"/>
<path style="fill:#F09235;" d="M123.719,313.913L43.023,210.44c-8.997,6.039-16.925,13.543-23.458,22.196l56.116,62.349
	c7.337,8.149,8.025,20.306,1.651,29.232l-17.075,23.917l28.19,9.261L123.719,313.913z"/>
<g>
	<path style="fill:#D68033;" d="M476.447,200.843c-10.762-56.796-58.252-99.324-115.887-103.791l-10.453-0.883l-29.373,181.732
		c-0.168,0.812-0.371,1.616-0.618,2.401l68.15,33.611L476.447,200.843z"/>
	<path style="fill:#D68033;" d="M46.069,448.226l2.145,1.863c6.392,9.359,19.167,11.76,28.526,5.368
		c0.998-0.68,1.942-1.457,2.808-2.304l0,0c5.447-5.341,7.354-13.323,4.918-20.553l-1.183-3.532
		c-7.99-23.617-6.127-49.468,5.165-71.699L9.077,331.279C-1.73,374.126,12.591,419.391,46.069,448.226z"/>
	<path style="fill:#D68033;" d="M161.877,96.239l-10.453,0.883c-57.608,4.459-105.089,46.952-115.887,103.721l88.182,113.07
		l68.15-33.611c-0.247-0.786-0.45-1.589-0.618-2.401L161.877,96.239z"/>
	<path style="fill:#D68033;" d="M423.536,357.395c11.292,22.231,13.155,48.082,5.165,71.699l-1.183,3.532
		c-2.437,7.231-0.53,15.212,4.918,20.553l0,0c8.087,7.946,21.083,7.831,29.029-0.256c0.848-0.865,1.625-1.801,2.304-2.808
		l2.145-1.863c33.47-28.826,47.79-74.082,36.993-116.92L423.536,357.395z"/>
</g>
<g>
	<path style="fill:#F09E3E;" d="M468.96,210.44l-80.695,103.474l35.271,43.482l79.371-26.089
		C523.125,288.177,508.672,236.741,468.96,210.44z"/>
	<path style="fill:#F09E3E;" d="M352.994,78.414c-59.612-33.664-132.414-34-192.327-0.883l-1.677,0.883l32.878,201.888
		c2.728,9.606,11.513,16.236,21.498,16.21h85.251c9.985,0.026,18.77-6.604,21.498-16.21l0,0
		C320.336,279.507,352.994,78.414,352.994,78.414z"/>
</g>
<path style="fill:#F09235;" d="M295.668,218.818c-4.75,16.792-20.103,28.367-37.558,28.323h-71.637l5.394,33.161
	c2.728,9.606,11.513,16.236,21.498,16.21h85.251c9.985,0.026,18.77-6.604,21.498-16.21c0.221-0.795,32.878-201.888,32.878-201.888
	c-10.224-5.765-20.951-10.603-32.04-14.444C307.923,144.074,295.854,218.183,295.668,218.818z"/>
<path style="fill:#D1792B;" d="M191.25,277.901L161.877,96.239l-10.453,0.883c-13.058,1.095-25.877,4.167-38.026,9.094
	l23.343,110.872c2.719,12.89-2.543,26.142-13.358,33.664l-31.731,22.072l32.066,41.116l68.15-33.611
	C191.621,279.534,191.418,278.722,191.25,277.901z"/>
<g>
	<path style="fill:#F7B363;" d="M44.365,305.217H26.708c0-39.156,20.244-50.271,22.558-51.41l7.813,15.839l-3.911-7.946l4.114,7.813
		C56.761,269.831,44.365,277.159,44.365,305.217z"/>
	<path style="fill:#F7B363;" d="M200.467,111.451l-12.36-12.572c19.635-19.423,63.038-19.935,67.92-19.935v17.658
		C244.726,96.61,212.731,99.312,200.467,111.451z"/>
</g>
<path style="fill:#F09E3E;" d="M87.803,195.457l-16.333-6.586c9.756-27.21,31.519-48.408,58.976-57.44l4.229,17.146l-2.11-8.573
	l2.163,8.564C112.762,156.231,95.484,173.5,87.803,195.457z"/>
<g>
	<path style="fill:#D1792B;" d="M391.823,227.885c-12.025,16.051-34.123,20.624-51.534,10.665l-12.078-6.895l-7.478,46.245
		c-0.168,0.812-0.371,1.616-0.618,2.401l68.15,33.611l88.182-113.07c-3.629-19.573-11.857-37.999-24.014-53.767L391.823,227.885z"/>
	<path style="fill:#D1792B;" d="M83.283,429.094c-7.99-23.617-6.127-49.468,5.165-71.699l-28.747-9.447
		c-5.977,11.319-22.16,47.693-6.772,84.598c1.81,4.353-1.245,10.18-6.666,15.892l1.951,1.686c6.392,9.359,19.167,11.76,28.526,5.368
		c0.998-0.68,1.942-1.457,2.808-2.304l0,0c5.447-5.341,7.354-13.323,4.918-20.553L83.283,429.094z"/>
</g>
<path style="fill:#F09235;" d="M463.354,299.708c-12.749,5.359-27.502,0.909-35.165-10.595l-9.491-14.232l-30.433,39.023
	l35.271,43.482l79.371-26.089c7.593-16.13,10.506-34.062,8.414-51.763L463.354,299.708z"/>
<g>
</g>
<g>
</g>
<g>
</g>
<g>
</g>
<g>
</g>
<g>
</g>
<g>
</g>
<g>
</g>
<g>
</g>
<g>
</g>
<g>
</g>
<g>
</g>
<g>
</g>
<g>
</g>
<g>
</g>
</svg>
