<?xml version="1.0" encoding="iso-8859-1"?>
<!-- Generator: Adobe Illustrator 19.0.0, SVG Export Plug-In . SVG Version: 6.00 Build 0)  -->
<svg version="1.1" id="Capa_1" xmlns="http://www.w3.org/2000/svg" xmlns:xlink="http://www.w3.org/1999/xlink" x="0px" y="0px"
	 viewBox="0 0 512 512" style="enable-background:new 0 0 512 512;" xml:space="preserve">
<path style="fill:#FFA722;" d="M102.976,233.691c-21.994-8.668-47.037-2.367-62.313,15.677l-27.616,32.62
	C1.663,295.438-2.621,313.681,1.584,330.793l4.773,19.416c6.078,24.72,28.102,41.984,53.558,41.984h18.11
	c28.713,0,52.327-21.564,54.927-50.16l4.73-52.035C139.887,265.765,125.614,242.611,102.976,233.691z"/>
<path style="fill:#EB8D00;" d="M195.118,177.232c-14.716-18.503-39.553-25.566-61.803-17.579L93.09,174.095
	c-16.584,5.954-29.418,19.612-34.329,36.532l-5.574,19.202c-7.097,24.448,3.345,50.411,25.391,63.138l15.684,9.055
	c8.747,5.05,18.277,7.474,27.681,7.474c17.334-0.001,34.238-8.238,44.966-23.449l30.113-42.698
	C211.048,223.464,210.263,196.276,195.118,177.232z"/>
<path style="fill:#FFA722;" d="M303.145,174.407c-3.492-23.381-21.469-41.917-44.733-46.125l-42.056-7.605
	c-17.335-3.133-35.282,2.275-47.998,14.474l-14.428,13.841c-18.37,17.623-22.309,45.329-9.581,67.375l9.055,15.684l0,0
	c10.194,17.655,28.514,27.648,47.614,27.648c7.799,0,15.732-1.668,23.289-5.161l47.429-21.921
	C293.824,222.41,306.74,198.474,303.145,174.407z"/>
<path style="fill:#EB8D00;" d="M382.434,163.664l-32.619-27.614c-13.448-11.385-31.695-15.669-48.804-11.464l-19.415,4.773
	c-24.721,6.078-41.986,28.102-41.986,53.558v18.11c0,28.715,21.565,52.327,50.16,54.926l52.034,4.731
	c1.65,0.149,3.289,0.224,4.925,0.224c22.39,0,43.07-13.834,51.383-34.932C406.778,203.98,400.478,178.939,382.434,163.664z"/>
<path style="fill:#FFA722;" d="M472.15,256.315l-14.441-40.224c-5.954-16.584-19.611-29.418-36.533-34.33l-19.201-5.574
	c-24.45-7.099-50.411,3.345-63.138,25.391l-9.055,15.684v-0.001c-14.357,24.866-7.49,56.098,15.976,72.647l42.699,30.115
	c9.484,6.689,20.629,10.01,31.761,10.009c12.205-0.001,24.395-3.993,34.355-11.914C473.075,303.403,480.139,278.567,472.15,256.315z
	"/>
<path style="fill:#EB8D00;" d="M496.653,291.359l-13.842-14.428c-17.623-18.369-45.328-22.309-67.375-9.581l-15.684,9.055
	c-24.866,14.356-34.534,44.838-22.489,70.902l20.746,44.888h103.563l9.555-52.839C514.262,322.018,508.851,304.075,496.653,291.359z
	"/>
<path style="fill:#FFD699;" d="M254.402,176.217c-110.75,0-200.85,90.102-200.85,200.851v15.125h401.703v-15.125
	C455.253,266.319,365.151,176.217,254.402,176.217z"/>
<path style="fill:#FFC266;" d="M254.402,176.217v215.976h200.851v-15.125C455.253,266.319,365.151,176.217,254.402,176.217z"/>
<g>
	
		<rect x="276.925" y="287.719" transform="matrix(-0.7071 -0.7071 0.7071 -0.7071 284.4178 723.4975)" style="fill:#D17E00;" width="30.249" height="30.249"/>
	
		<rect x="220.431" y="242.334" transform="matrix(-0.7071 -0.7071 0.7071 -0.7071 201.2705 651.4553)" style="fill:#D17E00;" width="30.249" height="83.418"/>
</g>
<g>
</g>
<g>
</g>
<g>
</g>
<g>
</g>
<g>
</g>
<g>
</g>
<g>
</g>
<g>
</g>
<g>
</g>
<g>
</g>
<g>
</g>
<g>
</g>
<g>
</g>
<g>
</g>
<g>
</g>
</svg>
