<svg height="512pt" viewBox="0 -24 512 512" width="512pt" xmlns="http://www.w3.org/2000/svg"><path d="m432.730469 226.074219h-385.597657c-8.285156 0-15 6.714843-15 15v144.601562c0 8.285157 6.714844 15 15 15h385.597657c8.285156 0 15.003906-6.714843 15.003906-15v-144.601562c0-8.285157-6.714844-15-15.003906-15zm0 0" fill="#ffd396"/><path d="m432.730469 226.074219h-176.730469v174.601562h176.730469c8.285156 0 15.003906-6.714843 15.003906-15v-144.601562c0-8.285157-6.714844-15-15.003906-15zm0 0" fill="#ffb64c"/><path d="m416.664062 81.476562c-47.464843 0-86.9375 34.863282-94.152343 80.332032h-275.378907c-25.988281 0-47.132812 21.144531-47.132812 47.132812 0 25.992188 21.144531 47.132813 47.132812 47.132813h370.601563v114.601562h-370.601563c-25.988281 0-47.132812 21.144531-47.132812 47.132813 0 25.988281 21.144531 47.132812 47.132812 47.132812h417.730469c25.992188 0 47.136719-21.144531 47.136719-47.132812v-241c0-52.566406-42.769531-95.332032-95.335938-95.332032zm0 0" fill="#ff641a"/><path d="m416.664062 81.476562c-47.464843 0-86.9375 34.863282-94.152343 80.332032h-66.511719v94.265625h161.730469v114.601562h-161.730469v94.265625h208.863281c25.992188 0 47.136719-21.140625 47.136719-47.132812v-241c0-52.566406-42.769531-95.332032-95.335938-95.332032zm0 0" fill="#dd3400"/><path d="m286.847656 122.257812c-1.523437-23.035156-11.363281-44.722656-27.703125-61.058593l-56.804687-56.804688c-2.8125-2.8125-6.628906-4.394531-10.605469-4.394531-3.980469 0-7.792969 1.578125-10.605469 4.394531l-56.808594 56.804688c-16.339843 16.339843-26.179687 38.023437-27.703124 61.058593-1.511719 22.804688 5.191406 45.378907 18.871093 63.566407 2.835938 3.769531 7.273438 5.984375 11.988281 5.984375h128.511719c4.714844 0 9.15625-2.214844 11.988281-5.984375 13.679688-18.1875 20.378907-40.765625 18.871094-63.566407zm0 0" fill="#fff4f4"/><path d="m286.847656 122.257812c-1.523437-23.035156-11.363281-44.722656-27.703125-61.058593l-56.804687-56.804688c-2.8125-2.8125-6.628906-4.394531-10.605469-4.394531v191.808594h64.257813c4.714843 0 9.152343-2.214844 11.988281-5.984375 13.675781-18.1875 20.375-40.765625 18.867187-63.566407zm0 0" fill="#ddebf0"/></svg>