<svg height="512pt" viewBox="0 0 512.001 512" width="512pt" xmlns="http://www.w3.org/2000/svg"><path d="m141.652344 465.097656c-2.480469-3.070312-3.796875-7.292968-3.160156-12.683594 5.152343-43.769531 16.089843-82.488281 37.152343-118.433593-11.023437 5.765625-22.101562 11.441406-33.703125 16.085937-25.625 10.257813-56.488281 9.320313-79.492187 25.148438-8.199219 5.640625-16.144531 3.859375-21.628907-1.226563-4.828124-1.667969-8.234374-5.03125-10.230468-9.191406l-30.58593775 12.660156c25.17578175 60.769531 73.76953175 109.363281 134.53906275 134.542969l14.769531-35.691406c-3.980469-2.640625-6.523438-6.691406-7.660156-11.210938zm0 0" fill="#be6e41"/><path d="m148.078125 479.308594 81.441406-196.828125-200.535156 82.980469c26.03125 49.839843 67.953125 90.03125 119.09375 113.847656zm0 0" fill="#f7e6a1"/><path d="m117.339844 387.863281c5.878906-3.105469 10.011718-7.882812 16.320312-12.914062 5.996094-4.773438 13.347656-5.5 19.34375-.175781 9.53125-16.832032 7.316406-38.53125-7.035156-52.878907-1.230469-1.214843-2.613281-2.160156-3.9375-3.210937l-70.929688 29.351562c-1.492187 12.921875 2.523438 26.367188 12.4375 36.28125 7.625 7.625 17.371094 11.679688 27.339844 12.550782.855469-3.757813 3.097656-7.21875 6.460938-9.003907zm0 0" fill="#cb465f"/><path d="m223.957031 1.949219c-114.316406 13.878906-206.335937 105.003906-221.613281 219.144531-5.6875 42.445312-.796875 83.121094 12.199219 119.984375l34.578125-14.457031c-1.042969-7.609375 1.789062-15.777344 8.429687-20.023438 1.296875-1.367187 2.816407-2.648437 4.703125-3.75 40.582032-23.464844 84.445313-34.21875 128.265625-49.585937 27.992188-9.816407 60.8125-31.945313 88.753907-11.105469 10.265624 7.664062 10.203124 20.234375 5.023437 28.832031 1.5 3.601563 1.695313 7.933594-.308594 12.90625-9.976562 24.761719-22.476562 47.757813-35.601562 70.957031-12.863281 22.746094-33.441407 50.03125-37.84375 76.664063 11.09375 10.664063 6.742187 34.683594-13.164063 34.683594-4.261718 0-7.75-1.171875-10.59375-3.007813l-14.328125 34.78125c36.761719 12.683594 77.253907 17.371094 119.492188 11.527344 113.910156-15.765625 204.605469-107.933594 218.183593-222.128906 19.753907-166.207032-119.886718-305.601563-286.175781-285.421875zm0 0" fill="#be6e41"/><path d="m415.386719 103.484375c-1.933594 1.183594-4.273438 1.941406-7.109375 1.941406-3.308594 0-6-.960937-8.085938-2.515625-10.589844-1.554687-13.644531-13.671875-9.039062-21.292968-41.257813-32.023438-94.144532-49.785157-151.285156-45.726563-38.832032 2.765625-75.070313 15.996094-106.027344 36.714844 1.402344 5.507812-.195313 11.882812-4.875 15.296875-2.214844 2.746094-5.5625 4.652344-10.167969 4.652344-3.207031 0-5.816406-.917969-7.867187-2.382813-38.992188 34.117187-66.1875 81.550781-73.53125 135.28125-4.875 35.675781-.824219 70.871094 9.671874 102.011719l200.839844-84.1875c13.097656-5.417969 26.226563 7.699218 20.804688 20.808594l-82.785156 201.179687c31.136718 10.488281 64.917968 14.203125 100.582031 9.339844 91.894531-12.542969 165.542969-82.910157 184.917969-171.734375-5.710938-2.558594-8.15625-8.878906-7.394532-14.714844.28125-6.25 4.113282-12.296875 11.722656-13.019531.085938-.988281.273438-1.941407.34375-2.941407 4.6875-65.542968-19.339843-125.5-60.714843-168.710937zm0 0" fill="#f7e6a1"/><path d="m361.933594 344.273438c-2.257813 0-4.519532-.863282-6.242188-2.585938-3.449218-3.453125-3.449218-9.03125 0-12.480469l17.65625-17.65625c3.441406-3.453125 9.039063-3.453125 12.484375 0 3.449219 3.453125 3.449219 9.03125 0 12.480469l-17.65625 17.65625c-1.722656 1.722656-3.980469 2.585938-6.242187 2.585938zm0 0" fill="#dd352e"/><path d="m291.3125 220.6875c-2.257812 0-4.519531-.863281-6.238281-2.585938-3.453125-3.453124-3.453125-9.03125 0-12.480468l17.652343-17.65625c3.445313-3.453125 9.039063-3.453125 12.484376 0 3.449218 3.449218 3.449218 9.03125 0 12.480468l-17.65625 17.65625c-1.722657 1.722657-3.980469 2.585938-6.242188 2.585938zm0 0" fill="#ebba16"/><path d="m185.382812 220.6875c-2.261718 0-4.519531-.863281-6.242187-2.585938-3.449219-3.453124-3.449219-9.03125 0-12.480468l17.65625-17.65625c3.441406-3.453125 9.039063-3.453125 12.480469 0 3.453125 3.449218 3.453125 9.03125 0 12.480468l-17.652344 17.65625c-1.722656 1.722657-3.984375 2.585938-6.242188 2.585938zm0 0" fill="#23a24d"/><path d="m317.796875 105.929688c-2.261719 0-4.519531-.867188-6.242187-2.585938-3.449219-3.453125-3.449219-9.03125 0-12.484375l17.65625-17.652344c3.441406-3.453125 9.039062-3.453125 12.480468 0 3.453125 3.449219 3.453125 9.027344 0 12.480469l-17.652344 17.65625c-1.722656 1.71875-3.984374 2.585938-6.242187 2.585938zm0 0" fill="#ebba16"/><path d="m282.757812 113.132812c-7.773437 0-13.628906-2.941406-17.664062-7.335937-6.890625-3.460937-11.078125-9.964844-12.417969-17.179687-22.792969 1.722656-40.8125 20.5625-40.8125 43.796874 0 24.371094 19.765625 44.136719 44.140625 44.136719 24.371094 0 44.136719-19.765625 44.136719-44.136719 0-8.015624-2.355469-15.371093-6.152344-21.804687-3.167969 1.5625-6.886719 2.523437-11.230469 2.523437zm0 0" fill="#cb465f"/><path d="m292.382812 115.824219c1.050782-1.050781 1.921876-2.207031 2.761719-3.378907-.183593-.363281-.371093-.714843-.566406-1.078124-.625-1.148438-1.144531-2.367188-1.871094-3.441407-1.585937-2.375-3.398437-4.636719-5.5-6.726562-2.089843-2.09375-4.359375-3.910157-6.726562-5.5-1.085938-.726563-2.292969-1.246094-3.441407-1.871094-1.375-.75-2.71875-1.589844-4.148437-2.179687-1.4375-.601563-2.984375-.957032-4.503906-1.398438-1.253907-.367188-2.46875-.855469-3.742188-1.109375-2.796875-.546875-5.683593-.867187-8.640625-.867187-2.550781 0-5.015625.335937-7.453125.75-2.929687 9.148437-.882812 19.546874 6.375 26.800781 10.347657 10.347656 27.117188 10.347656 37.457031 0zm0 0" fill="#dd8799"/><path d="m389.519531 273.839844c8.890625-4.433594 17.9375-6.128906 25.75-11.40625 3.207031-2.164063 7.167969-2.382813 10.753907-1.28125 4.058593-6.664063 6.53125-14.421875 6.53125-22.808594 0-22.703125-17.203126-41.179688-39.246094-43.644531-1 3.496093-3.347656 6.691406-6.367188 8.882812-3.238281 2.347657-6.609375 4.484375-9.957031 6.671875-1.640625 1.078125-3.28125 2.164063-4.871094 3.328125-1.351562.972657-1.589843 1.15625-.714843.554688-.769532.644531-1.519532 1.308593-2.253907 1.996093-5.515625 5.03125-13.203125 5.128907-18.890625.425782-3.699218 6.453125-5.976562 13.8125-5.976562 21.785156 0 22.617188 17.082031 41.046875 39.011718 43.617188.898438-3.425782 2.992188-6.496094 6.230469-8.121094zm0 0" fill="#cb465f"/><path d="m424.796875 254.929688c1.050781 1.050781 1.921875 2.207031 2.761719 3.382812-.183594.359375-.371094.714844-.566406 1.074219-.625 1.148437-1.144532 2.367187-1.871094 3.445312-1.589844 2.375-3.398438 4.632813-5.5 6.726563-2.089844 2.089844-4.359375 3.910156-6.726563 5.5-1.085937.722656-2.292969 1.242187-3.441406 1.871094-1.378906.75-2.71875 1.589843-4.148437 2.179687-1.441407.601563-2.984376.953125-4.503907 1.394531-1.253906.371094-2.46875.855469-3.742187 1.113282-2.796875.546874-5.683594.863281-8.640625.863281-2.550781 0-5.015625-.335938-7.453125-.75-2.929688-9.144531-.882813-19.542969 6.375-26.800781 10.347656-10.34375 27.117187-10.34375 37.457031 0zm0 0" fill="#dd8799"/><path d="m352.039062 221.757812c-1.050781-1.050781-1.925781-2.207031-2.753906-3.382812.183594-.371094.378906-.730469.574219-1.09375.625-1.140625 1.136719-2.347656 1.851563-3.425781 1.589843-2.375 3.398437-4.632813 5.5-6.726563 2.09375-2.09375 4.359374-3.910156 6.726562-5.5 1.078125-.722656 2.285156-1.234375 3.425781-1.851562 1.386719-.761719 2.738281-1.597656 4.175781-2.199219 1.429688-.59375 2.964844-.945313 4.464844-1.386719 1.265625-.371094 2.492188-.863281 3.78125-1.121094 2.789063-.546874 5.675782-.863281 8.632813-.863281 2.550781 0 5.011719.332031 7.449219.75 2.929687 9.144531.882812 19.542969-6.375 26.800781-10.34375 10.34375-27.117188 10.34375-37.453126 0zm0 0" fill="#dd8799"/><path d="m119.027344 159.328125c-.644532 1.386719-1.476563 2.699219-2.570313 3.839844-4.230469 4.371093-9.304687 6.921875-14.804687 9.25-1.128906.476562-1.410156.582031-1.410156.566406-.203126.097656-.496094.238281-.992188.476563-.941406.449218-1.894531.875-2.8125 1.375-.238281.132812-1.527344 1.050781-1.847656 1.203124-.722656.695313-1.402344 1.402344-2.039063 2.207032-3.636719 4.597656-10.546875 4.914062-15.710937 2.558594-3.859375 6.550781-6.214844 14.082031-6.214844 22.226562 0 22.292969 16.578125 40.527344 38.035156 43.523438.8125-3.832032 3.046875-7.363282 6.472656-9.128907-.019531.007813 1.367188-.832031 1.898438-1.105469.492188-.429687 1.410156-1.191406 1.554688-1.3125 1.84375-1.609374 3.75-3.222656 5.769531-4.601562 1.730469-1.183594 3.613281-2.101562 5.464843-3.070312 1.050782-.558594 2.085938-1.140626 3.125-1.714844.40625-.21875 1.792969-1.25.714844-.367188 5.863282-4.832031 13.285156-5.414062 19.191406-.292968 3.742188-6.488282 6.046876-13.902344 6.046876-21.929688 0-22.914062-17.53125-41.53125-39.871094-43.703125zm0 0" fill="#cb465f"/><g fill="#dd8799"><path d="m151.140625 219.621094c1.050781 1.050781 1.925781 2.207031 2.761719 3.378906-.183594.363281-.371094.714844-.5625 1.078125-.628906 1.148437-1.148438 2.367187-1.871094 3.441406-1.589844 2.375-3.402344 4.636719-5.5 6.726563-2.09375 2.09375-4.363281 3.910156-6.726562 5.5-1.085938.726562-2.296876 1.246094-3.445313 1.871094-1.375.75-2.71875 1.589843-4.148437 2.179687-1.4375.601563-2.984376.957031-4.5 1.398437-1.253907.367188-2.472657.855469-3.746094 1.109376-2.796875.546874-5.683594.867187-8.640625.867187-2.550781 0-5.015625-.335937-7.449219-.75-2.933594-9.148437-.882812-19.546875 6.371094-26.800781 10.347656-10.347656 27.121094-10.347656 37.457031 0zm0 0"/><path d="m78.382812 186.445312c-1.050781-1.050781-1.925781-2.207031-2.753906-3.378906.183594-.371094.378906-.734375.574219-1.097656.625-1.136719 1.136719-2.347656 1.851563-3.421875 1.589843-2.375 3.402343-4.636719 5.5-6.726563 2.09375-2.09375 4.363281-3.914062 6.726562-5.5 1.078125-.726562 2.289062-1.238281 3.425781-1.855468 1.386719-.757813 2.738281-1.597656 4.175781-2.199219 1.429688-.589844 2.964844-.941406 4.46875-1.382813 1.261719-.371093 2.488282-.867187 3.777344-1.121093 2.789063-.550781 5.675782-.867188 8.632813-.867188 2.550781 0 5.015625.335938 7.449219.75 2.933593 9.144531.882812 19.546875-6.371094 26.800781-10.347656 10.347657-27.121094 10.347657-37.457032 0zm0 0"/><path d="m151.140625 369.6875c1.050781 1.050781 1.925781 2.207031 2.761719 3.382812-.183594.363282-.371094.714844-.5625 1.078126-.628906 1.144531-1.148438 2.363281-1.871094 3.441406-1.589844 2.375-3.402344 4.632812-5.5 6.726562-2.09375 2.09375-4.363281 3.910156-6.726562 5.5-1.085938.722656-2.296876 1.246094-3.445313 1.871094-1.375.75-2.71875 1.589844-4.148437 2.179688-1.4375.601562-2.984376.953124-4.5 1.394531-1.253907.371093-2.472657.855469-3.746094 1.113281-2.796875.546875-5.683594.863281-8.640625.863281-2.550781 0-5.015625-.332031-7.449219-.75-2.933594-9.144531-.882812-19.542969 6.371094-26.800781 10.347656-10.34375 27.121094-10.34375 37.457031 0zm0 0"/></g><path d="m308.96875 335.445312c-24.375 0-44.136719 19.765626-44.136719 44.140626 0 7.765624 2.179688 14.96875 5.710938 21.308593 6.011719-1.757812 11.917969 1.246094 15.800781 6.277344 1.253906 1.625 3.636719 3.609375 6.550781 4.96875.246094.078125.421875.140625.960938.328125.875.261719 1.765625.464844 2.65625.632812.019531-.132812 3.796875-.21875 4.363281-.28125 6.230469-.660156 11.625 4.625 13.265625 10.371094 21.910156-2.585937 38.964844-21.007812 38.964844-43.605468 0-24.375-19.765625-44.140626-44.136719-44.140626zm0 0" fill="#cb465f"/><path d="m272.589844 396.171875c-1.050782 1.050781-1.925782 2.207031-2.761719 3.378906.183594.363281.371094.71875.5625 1.078125.628906 1.148438 1.148437 2.367188 1.871094 3.445313 1.589843 2.371093 3.402343 4.632812 5.5 6.726562 2.09375 2.089844 4.363281 3.910157 6.726562 5.496094 1.085938.726563 2.296875 1.246094 3.445313 1.875 1.375.75 2.71875 1.585937 4.148437 2.179687 1.4375.597657 2.984375.953126 4.5 1.394532 1.253907.371094 2.472657.855468 3.746094 1.113281 2.796875.546875 5.683594.863281 8.640625.863281 2.550781 0 5.015625-.335937 7.449219-.75 2.933593-9.144531.882812-19.542968-6.371094-26.800781-10.347656-10.347656-27.121094-10.347656-37.457031 0zm0 0" fill="#dd8799"/><path d="m304.722656 307.585938 14.441406-8.96875c4.289063-2.664063 5.613282-8.304688 2.949219-12.605469l-20.976562-33.773438c-1.179688-1.90625-3.679688-2.488281-5.585938-1.308593-6.382812 3.964843-14.761719 2.003906-18.722656-4.375l-15.941406-25.671876c-2.667969-4.289062-8.308594-5.613281-12.609375-2.949218l-14.441406 8.96875c-4.289063 2.667968-5.613282 8.308594-2.949219 12.605468l5.34375 8.597657 11.679687-4.835938c13.105469-5.429687 26.226563 7.695313 20.804688 20.804688l-3.503906 8.484375c4.332031.1875 8.5 2.4375 10.964843 6.410156l15.941407 25.667969c2.675781 4.292969 8.316406 5.617187 12.605468 2.949219zm0 0" fill="#c5411e"/><path d="m415.613281 103.695312c-8.144531-8.535156-16.964843-16.417968-26.375-23.558593l-21.273437 21.273437c-1.589844 1.578125-1.589844 4.15625 0 5.738282 5.304687 5.3125 5.304687 13.921874 0 19.226562l-21.363282 21.363281c-3.574218 3.574219-3.574218 9.375 0 12.941407l12.023438 12.023437c3.574219 3.574219 9.375 3.574219 12.941406 0l28.105469-28.109375c1.589844-1.578125 1.589844-4.15625 0-5.738281-5.304687-5.3125-5.304687-13.921875 0-19.226563zm0 0" fill="#dd352e"/><path d="m470.953125 305.511719c2.394531-10.355469 4.125-20.929688 4.972656-31.734375l-5.113281-5.121094c-3.574219-3.574219-9.363281-3.574219-12.941406 0l-28.105469 28.117188c-1.589844 1.578124-1.589844 4.15625 0 5.738281 5.304687 5.3125 5.304687 13.921875 0 19.226562l-21.363281 21.363281c-3.574219 3.574219-3.574219 9.363282 0 12.941407l12.023437 12.023437c3.574219 3.574219 9.375 3.574219 12.941407 0l25.476562-25.476562c1.09375-2.542969 2.054688-5.148438 3.0625-7.726563-.140625-.210937-.238281-.449219-.421875-.644531-5.308594-5.3125-5.308594-13.921875 0-19.226562zm0 0" fill="#23a24d"/><path d="m113.753906 100.863281c1.183594 1.90625 3.683594 2.488281 5.589844 1.304688 6.382812-3.960938 14.757812-2.003907 18.722656 4.378906l15.941406 25.671875c2.667969 4.289062 8.308594 5.613281 12.605469 2.949219l14.445313-8.96875c4.289062-2.667969 5.613281-8.308594 2.945312-12.605469l-20.972656-33.777344c-1.183594-1.90625-3.679688-2.488281-5.589844-1.304687-6.378906 3.964843-14.757812 2.003906-18.722656-4.378907l-2.136719-3.441406c-9.957031 6.441406-19.339843 13.699219-28.132812 21.617188zm0 0" fill="#ebba16"/></svg>