<svg viewBox="-12 0 511 512" xmlns="http://www.w3.org/2000/svg"><path d="m206.679688 443.683594c-13.773438 6.535156-29.074219 9.976562-44.402344 9.976562-27.644532 0-53.640625-10.765625-73.195313-30.320312-19.550781-19.554688-30.316406-45.546875-30.316406-73.195313 0-27.652343 10.765625-53.644531 30.316406-73.195312s45.542969-30.316407 73.191407-30.316407c16.101562 0 32.179687 3.800782 46.484374 10.996094 9.855469 4.941406 18.84375 11.445313 26.71875 19.320313 2.632813 2.632812 5.105469 5.386719 7.359376 8.199219 29.988281 37.042968 30.480468 90.558593 1.472656 128.15625.480468.621093.964844 1.234374 1.457031 1.84375 2.265625 2.816406 4.742187 5.566406 7.363281 8.191406 7.875 7.871094 16.863282 14.375 26.714844 19.316406.6875.347656 1.382812.6875 2.078125 1.015625 20.789063-26.539063 32.210937-59.664063 32.210937-93.535156 0-34.664063-11.957031-68.53125-33.671874-95.371094-3.355469-4.15625-6.992188-8.195313-10.800782-12.003906-7.433594-7.433594-15.621094-14.089844-24.335937-19.792969-24.679688-16.148438-53.398438-24.683594-83.054688-24.683594-40.5625 0-78.695312 15.792969-107.375 44.472656-59.203125 59.210938-59.203125 155.554688 0 214.765626 28.683594 28.683593 66.824219 44.476562 107.382813 44.472656 29.25 0 57.585937-8.300782 82.023437-24.015625" fill="#ffae55"/><path d="m364.027344 118.609375-37.738282-47.992187-37.738281 47.992187zm0 0" fill="#5396a8"/><g fill="#fff"><path d="m271.898438 70.617188-33.980469 47.992187h50.632812l37.738281-47.992187zm0 0"/><path d="m380.679688 70.617188h-54.390626l37.738282 47.992187h50.632812zm0 0"/><path d="m338.238281 198.746094 25.789063-80.136719h-75.476563l25.792969 80.144531"/></g><path d="m314.34375 198.753906-25.792969-80.144531h-50.632812l61.796875 82.003906" fill="#5396a8"/><path d="m352.882812 200.589844 61.777344-81.980469h-50.632812l-25.789063 80.136719" fill="#5396a8"/><path d="m433.707031 242.757812c-28.683593-28.679687-66.816406-44.472656-107.382812-44.472656-29.246094 0-57.582031 8.304688-82.023438 24.019532.34375.21875.683594.441406 1.027344.667968 8.714844 5.699219 16.902344 12.355469 24.332031 19.789063 3.8125 3.808593 7.445313 7.851562 10.800782 12.003906.492187.609375.980468 1.222656 1.460937 1.835937 13.777344-6.53125 29.078125-9.972656 44.40625-9.972656 27.652344 0 53.648437 10.765625 73.195313 30.320313 19.550781 19.550781 30.316406 45.542969 30.316406 73.195312 0 27.648438-10.765625 53.644531-30.316406 73.195313-19.554688 19.550781-45.546876 30.316406-73.191407 30.316406-16.105469 0-32.179687-3.804688-46.484375-10.996094-9.855468-4.945312-18.84375-11.445312-26.71875-19.320312-2.621094-2.621094-5.097656-5.375-7.359375-8.191406-29.984375-37.046876-30.476562-90.566407-1.476562-128.15625-.476563-.621094-.960938-1.234376-1.457031-1.84375-2.253907-2.8125-4.726563-5.566407-7.359376-8.199219-7.875-7.875-16.863281-14.378907-26.714843-19.320313-.691407-.347656-1.382813-.6875-2.078125-1.015625-20.789063 26.539063-32.214844 59.664063-32.214844 93.539063 0 34.660156 11.960938 68.53125 33.675781 95.367187 3.355469 4.15625 6.988281 8.195313 10.800781 12.003907 7.429688 7.433593 15.617188 14.089843 24.332032 19.792968 24.679687 16.148438 53.398437 24.683594 83.042968 24.683594h.015626c40.5625-.003906 78.695312-15.800781 107.371093-44.476562 59.203125-59.210938 59.203125-155.554688 0-214.765626zm0 0" fill="#fcd888"/><path d="m134.582031 423.78125c-.648437 0-1.308593-.0625-1.949219-.191406-.640624-.128906-1.269531-.320313-1.871093-.570313-.609375-.25-1.1875-.558593-1.730469-.917969-.546875-.371093-1.058594-.792968-1.519531-1.25-.457031-.460937-.878907-.972656-1.238281-1.523437-.359376-.539063-.671876-1.117187-.921876-1.71875-.25-.609375-.4375-1.238281-.570312-1.871094-.128906-.648437-.199219-1.308593-.199219-1.957031 0-.652344.070313-1.3125.199219-1.953125.132812-.636719.320312-1.269531.570312-1.867187.25-.609376.5625-1.191407.921876-1.730469.359374-.550781.78125-1.058594 1.238281-1.519531.460937-.460938.972656-.882813 1.519531-1.242188.542969-.359375 1.121094-.667969 1.730469-.917969.601562-.25 1.230469-.441406 1.871093-.570312 1.289063-.261719 2.621094-.261719 3.910157 0 .628906.128906 1.261719.320312 1.867187.570312.601563.25 1.183594.558594 1.722656.917969.550782.359375 1.058594.78125 1.519532 1.242188.460937.460937.878906.96875 1.25 1.519531.359375.539062.671875 1.121093.921875 1.730469.25.597656.4375 1.230468.570312 1.867187.128907.640625.1875 1.300781.1875 1.953125 0 .648438-.058593 1.308594-.1875 1.957031-.132812.632813-.320312 1.261719-.570312 1.871094-.25.601563-.5625 1.179687-.921875 1.71875-.371094.550781-.789063 1.0625-1.25 1.523437-.460938.457032-.96875.878907-1.519532 1.25-.539062.359376-1.121093.667969-1.722656.917969-.605468.25-1.238281.441407-1.867187.570313-.648438.128906-1.300781.191406-1.960938.191406zm0 0"/><path d="m440.78125 235.6875s0 0-.003906 0c-19.941406-19.9375-44.167969-34.03125-70.609375-41.421875l52.480469-69.636719c.015624-.019531 1.992187-2.628906 1.992187-5.363281 0-3.203125-1.777344-6.375-1.855469-6.484375l-33.945312-47.941406c-1.875-2.648438-4.914063-4.222656-8.160156-4.222656h-108.777344c-3.246094 0-6.289063 1.574218-8.164063 4.222656l-33.945312 47.9375c-.078125.109375-1.808594 2.804687-1.808594 6.988281 0 2.441406 1.933594 4.839844 1.949219 4.863281l52.511718 69.679688c-13.320312 3.738281-26.136718 9.1875-38.144531 16.257812-24.792969-14.597656-52.992187-22.28125-82.03125-22.28125-43.230469 0-83.875 16.835938-114.445312 47.402344-63.097657 63.113281-63.097657 165.800781 0 228.910156 30.574219 30.566406 71.222656 47.402344 114.457031 47.398438 29.011719 0 57.234375-7.683594 82.019531-22.273438 24.796875 14.597656 52.988281 22.277344 82.019531 22.277344h.148438c43.183594-.039062 83.777344-16.871094 114.3125-47.40625 63.101562-63.109375 63.101562-165.796875 0-228.90625zm-86.824219-53.140625 17.359375-53.9375h23.289063zm21.550781-101.929687 19.820313 27.992187h-26.441406l-22.011719-27.992187zm-25.203124 47.992187-19.226563 59.746094c-1.582031-.042969-3.164063-.070313-4.753906-.070313-1.609375 0-3.214844.027344-4.820313.074219l-19.230468-59.75zm-24.015626-41.8125 17.15625 21.8125h-34.308593zm-49.21875-6.179687h28.632813l-22.011719 27.992187h-26.441406zm-19.09375 47.992187h23.285157l17.359375 53.933594zm-95.695312 363.386719c-37.894531.003906-73.519531-14.75-100.3125-41.539063-55.304688-55.3125-55.304688-145.3125 0-200.625 26.789062-26.792969 62.414062-41.546875 100.300781-41.546875 27.324219 0 53.792969 7.753906 76.625 22.433594l.910157.589844c.015624.007812.03125.019531.046874.03125l.007813.003906c8.140625 5.328125 15.789063 11.546875 22.730469 18.488281 3.554687 3.554688 6.945312 7.324219 10.085937 11.207031.003907.007813.007813.011719.011719.019532.035156.042968.070312.085937.105469.128906.183593.226562.367187.457031.546875.683594.019531.027344.042968.050781.058594.074218.21875.273438.4375.550782.652343.824219.011719.015625.023438.027344.03125.042969 19.394531 24.777344 30.050781 55.695312 30.050781 87.324219 0 28.789062-8.882812 57.125-25.152343 80.671875-6.820313-4.003906-13.117188-8.875-18.78125-14.539063-1.121094-1.125-2.214844-2.273437-3.269531-3.441406 12.390624-18.753906 19.011718-41.15625 18.765624-63.917969-.269531-24.652344-8.582031-48.695312-23.464843-68.003906-.007813-.007812-.015625-.015625-.023438-.027344-.03125-.039062-.0625-.082031-.09375-.121094-.019531-.027343-.039062-.050781-.058593-.078124-.105469-.136719-.210938-.273438-.320313-.40625l-.042969-.054688c-.109375-.144531-.21875-.28125-.328125-.421875-.011719-.015625-.023437-.027344-.035156-.042969-.105469-.136718-.214844-.269531-.320313-.402344-.035156-.042968-.070312-.085937-.105468-.128906-.042969-.054687-.085938-.109375-.128906-.160156-.054688-.070312-.109376-.140625-.164063-.207031-.007813-.011719-.015625-.019531-.027344-.03125-2.460937-3.066407-5.167969-6.078125-8.039062-8.949219-8.625-8.625-18.46875-15.746094-29.257813-21.164062-.011718-.007813-.023437-.011719-.035156-.019532-.121094-.0625-.242188-.121094-.363281-.183594-.085938-.039062-.167969-.082031-.25-.121093-.117188-.058594-.230469-.113281-.34375-.171875-.113281-.054688-.222657-.109375-.335938-.164063-.105469-.050781-.214843-.101562-.320312-.15625-.121094-.058593-.246094-.117187-.367188-.175781-.101562-.046875-.199219-.09375-.296875-.140625-.003906 0-.003906-.003906-.003906-.003906s0 0-.003906 0c-15.109375-7.167969-31.886719-10.945313-48.695313-10.945313-30.316406 0-58.820312 11.804688-80.261719 33.246094-21.4375 21.4375-33.246093 49.945312-33.246093 80.265625s11.808593 58.824219 33.246093 80.265625c21.445313 21.445312 49.949219 33.253906 80.269532 33.253906 14.125 0 28.308594-2.6875 41.457031-7.824218 2.597656 3.011718 5.320313 5.941406 8.132813 8.757812 4.410156 4.410156 9.070312 8.5625 13.941406 12.429688-19.605469 9.832031-41.296875 14.972656-63.527344 14.972656zm135.226562-230.824219c9.28125-2.988281 19.066407-4.542969 28.820313-4.542969 24.980469 0 48.460937 9.726563 66.121094 27.390625 17.664062 17.664063 27.390625 41.144531 27.390625 66.125 0 24.976563-9.726563 48.460938-27.390625 66.125-17.660157 17.664063-41.144531 27.386719-66.117188 27.386719-9.78125 0-19.550781-1.550781-28.832031-4.542969 17.25-26.25 26.636719-57.378906 26.636719-88.976562 0-31.671875-9.371094-62.722657-26.628907-88.964844zm-53.195312 133.863281c-15.0625-27.726562-15.117188-61.984375-.019531-89.78125 15.0625 27.726563 15.117187 61.984375.019531 89.78125zm-144.527344 4.046875c1.976563 2.519531 4.910156 3.832031 7.878906 3.832031 2.15625 0 4.332032-.691406 6.160157-2.128906 4.351562-3.40625 5.109375-9.691406 1.703125-14.039062-8.25-10.527344-12.613282-23.1875-12.613282-36.601563 0-32.753906 26.648438-59.398437 59.398438-59.398437 4.394531 0 8.714844.46875 12.929688 1.40625-7.054688 18.414062-10.773438 38.113281-10.773438 58 0 31.671875 9.371094 62.726562 26.628906 88.964844-9.285156 2.992187-19.066406 4.542968-28.820312 4.542968-24.972656 0-48.457032-9.726562-66.125-27.390625-17.660156-17.664062-27.386719-41.148437-27.386719-66.125 0-24.980469 9.726563-48.460937 27.386719-66.125 17.664062-17.664062 41.148437-27.386719 66.121094-27.386719 9.785156 0 19.550781 1.550782 28.832031 4.542969-2.664063 4.046875-5.136719 8.214844-7.417969 12.476563-6.917969-1.929688-14.074219-2.90625-21.371094-2.90625-43.78125 0-79.402344 35.617187-79.402344 79.398437 0 17.929688 5.835938 34.851563 16.871094 48.9375zm326.851563 51.371094c-26.789063 26.789063-62.410157 41.542969-100.304688 41.546875-.042969 0-.085937 0-.128906 0-27.203125-.023438-53.558594-7.734375-76.3125-22.316406-.121094-.078125-.238281-.15625-.359375-.230469-.261719-.167969-.519531-.335937-.78125-.507813-8.144531-5.328124-15.792969-11.550781-22.734375-18.492187-3.566406-3.5625-6.960937-7.335937-10.097656-11.222656-.433594-.535157-.859375-1.074219-1.285157-1.613281-.058593-.074219-.113281-.148438-.171874-.21875-19.359376-24.765626-29.992188-55.652344-29.992188-87.246094 0-28.789063 8.882812-57.125 25.15625-80.675782 6.816406 4.003907 13.113281 8.878907 18.777344 14.539063 1.125 1.125 2.214844 2.273437 3.273437 3.445313-12.394531 18.753906-19.011719 41.15625-18.765625 63.921874.265625 24.589844 8.539063 48.578126 23.339844 67.847657.082031.109375.164062.214843.25.324219.484375.625.976562 1.246093 1.476562 1.863281 2.480469 3.085937 5.203126 6.113281 8.082032 8.992187 8.632812 8.636719 18.492187 15.761719 29.292968 21.183594.710938.355469 1.421876.703125 2.136719 1.042969.113281.058593.226563.109375.339844.164062 15.0625 7.105469 31.769531 10.855469 48.503906 10.855469h.003907c30.316406 0 58.816406-11.808594 80.257812-33.246094 21.4375-21.441406 33.246094-49.945312 33.246094-80.269531 0-30.320313-11.808594-58.824219-33.246094-80.265625s-49.941406-33.25-80.265625-33.25c-14.128906 0-28.308594 2.6875-41.457031 7.820312-2.601563-3.011718-5.324219-5.941406-8.140625-8.757812-4.410157-4.40625-9.070313-8.5625-13.9375-12.429688 16.25-8.148437 33.933593-13.074218 52.164062-14.523437.089844-.003906.179688-.011719.269531-.019531 3.679688-.285156 7.382813-.429688 11.097657-.429688 3.691406 0 7.355469.140625 10.992187.417969.113282.011719.226563.019531.339844.027344 33.621094 2.636719 64.875 16.996093 88.980469 41.097656 55.304687 55.3125 55.304687 145.3125 0 200.625zm0 0"/><path d="m326.289062 38c-5.523437 0-10-4.476562-10-10v-18c0-5.523438 4.476563-10 10-10 5.523438 0 10 4.476562 10 10v18c0 5.523438-4.476562 10-10 10zm0 0"/><path d="m245.679688 71.390625c-2.5625 0-5.117188-.976563-7.070313-2.929687l-12.730469-12.726563c-3.902344-3.90625-3.902344-10.238281 0-14.144531 3.90625-3.90625 10.238282-3.90625 14.144532 0l12.726562 12.726562c3.90625 3.90625 3.90625 10.238282 0 14.144532-1.953125 1.953124-4.511719 2.929687-7.070312 2.929687zm0 0"/><path d="m406.898438 71.390625c-2.558594 0-5.117188-.976563-7.070313-2.929687-3.902344-3.90625-3.902344-10.238282 0-14.144532l12.730469-12.726562c3.902344-3.90625 10.234375-3.90625 14.140625 0s3.90625 10.238281 0 14.144531l-12.726563 12.726563c-1.953125 1.953124-4.515625 2.929687-7.074218 2.929687zm0 0"/><path d="m458.289062 152h-18c-5.523437 0-10-4.476562-10-10s4.476563-10 10-10h18c5.523438 0 10 4.476562 10 10s-4.476562 10-10 10zm0 0"/><path d="m212.289062 152h-18c-5.523437 0-10-4.476562-10-10s4.476563-10 10-10h18c5.523438 0 10 4.476562 10 10s-4.476562 10-10 10zm0 0"/></svg>