<?xml version="1.0" encoding="iso-8859-1"?>
<!-- Generator: Adobe Illustrator 19.0.0, SVG Export Plug-In . SVG Version: 6.00 Build 0)  -->
<svg version="1.1" id="Layer_1" xmlns="http://www.w3.org/2000/svg" xmlns:xlink="http://www.w3.org/1999/xlink" x="0px" y="0px"
	 viewBox="0 0 512 512" style="enable-background:new 0 0 512 512;" xml:space="preserve">
<polygon style="fill:#EC3C72;" points="424.506,58.329 333.772,155.544 243.038,58.329 "/>
<polygon style="fill:#FE84B3;" points="405.063,12.962 424.506,58.329 243.038,58.329 262.481,12.962 "/>
<g>
	<path style="fill:#7E8488;" d="M346.734,330.532c0,42.127-15.425,80.624-40.96,110.177l-0.648,2.981
		c-18.406-4.666-34.997-13.74-48.737-25.924l2.463-2.981c22.295-21.258,36.034-51.07,36.034-84.253
		c0-34.479-15.036-65.588-38.886-86.975c13.351-11.925,29.553-20.869,47.441-25.665
		C330.402,247.704,346.734,287.238,346.734,330.532z"/>
	<path style="fill:#7E8488;" d="M256,181.079c-18.017,9.333-34.09,21.776-47.441,36.812c-9.592-2.722-19.832-4.018-30.331-4.018
		c-64.421,0-116.658,52.237-116.658,116.658S113.807,447.19,178.228,447.19c10.499,0,20.739-1.296,30.331-4.018
		c13.351,15.036,29.424,27.48,47.441,36.812c-23.202,12.184-49.774,19.054-77.772,19.054c-93.067,0-168.506-75.439-168.506-168.506
		S85.16,162.025,178.228,162.025C206.226,162.025,232.798,168.895,256,181.079z"/>
</g>
<path style="fill:#AFB6BB;" d="M256,479.984c-18.017-9.333-34.09-21.776-47.441-36.812c-26.831-29.813-43.293-69.347-43.293-112.64
	s16.462-82.827,43.293-112.64c13.351-15.036,29.424-27.479,47.441-36.812c23.332-12.184,49.774-19.054,77.772-19.054
	c93.067,0,168.506,75.439,168.506,168.506s-75.439,168.506-168.506,168.506C305.774,499.038,279.332,492.168,256,479.984z
	 M303.441,217.892c-17.888,4.796-34.09,13.74-47.441,25.665c-23.85,21.387-38.886,52.496-38.886,86.975
	c0,34.738,15.166,65.847,39.275,87.234c13.74,12.184,30.331,21.258,48.737,25.924c9.203,2.204,18.795,3.5,28.646,3.5
	c64.421,0,116.658-52.237,116.658-116.658s-52.237-116.658-116.658-116.658C323.273,213.873,313.163,215.299,303.441,217.892z"/>
<path style="fill:#D43567;" d="M316.143,58.329h-73.105l90.734,97.215l42.592-45.634C352.515,97.525,331.978,79.799,316.143,58.329z
	"/>
<path style="fill:#F170A7;" d="M292.075,12.962h-29.594l-19.443,45.367h73.105C306.014,44.595,297.87,29.359,292.075,12.962z"/>
<rect x="324.051" y="84.253" style="fill:#FFFFFF;" width="19.443" height="25.924"/>
<path d="M349.445,153.001l86.496-92.675L411.473,3.241H256.071l-24.466,57.086l86.499,92.678
	c-21.545,1.917-42.694,7.756-62.093,17.189c-23.997-11.715-50.776-17.89-77.783-17.89c-37.095,0-72.655,11.286-102.834,32.64
	l11.23,15.872c26.875-19.017,58.552-29.069,91.603-29.069c19.444,0,38.745,3.596,56.705,10.473
	c-10.813,7.181-20.72,15.495-29.61,24.843c-8.576-1.924-17.657-2.911-27.095-2.911c-69.686,0-126.38,56.693-126.38,126.38
	s56.693,126.38,126.38,126.38c9.439,0,18.52-0.989,27.097-2.913c8.906,9.361,18.81,17.672,29.607,24.844
	c-17.959,6.878-37.259,10.473-56.704,10.473c-87.555,0-158.785-71.23-158.785-158.785c0-40.401,15.181-78.895,42.747-108.391
	l-14.205-13.276C17.042,241.975,0,285.184,0,330.532c0,98.274,79.954,178.228,178.228,178.228c27.004,0,53.782-6.179,77.777-17.893
	c24.107,11.716,50.882,17.893,77.767,17.893c46.228,0,90.05-17.622,123.393-49.619l-13.464-14.027
	c-29.705,28.505-68.745,44.204-109.931,44.204c-25.813,0-50.465-6.039-73.302-17.964c-17.064-8.84-32.085-20.493-44.687-34.684
	c-26.306-29.233-40.795-66.927-40.795-106.138s14.489-76.905,40.842-106.186c12.558-14.142,27.577-25.793,44.671-34.647
	c22.808-11.911,47.459-17.951,73.272-17.951c87.555,0,158.785,71.23,158.785,158.785c0,30.432-8.629,59.996-24.956,85.496
	l16.375,10.484C502.308,397.876,512,364.687,512,330.532C512,237.538,440.406,160.964,349.445,153.001z M190.749,436.758
	c-4.064,0.463-8.24,0.71-12.521,0.71c-58.964,0-106.937-47.972-106.937-106.937s47.972-106.937,106.937-106.937
	c4.284,0,8.462,0.248,12.527,0.71c-22.807,30.645-35.21,67.784-35.21,106.226C155.544,368.989,167.957,406.14,190.749,436.758z
	 M268.891,22.684h129.762l11.111,25.924H294.886v19.443h107.249l-68.363,73.246L254.47,56.33L268.891,22.684z"/>
<path d="M333.772,204.152c-10.975,0-22.022,1.462-32.837,4.345l-0.013,0.004c-18.949,5.081-36.723,14.696-51.413,27.818
	c-26.767,24.003-42.118,58.341-42.118,94.213c0,36.075,15.506,70.52,42.545,94.507c15.176,13.457,33.433,23.164,52.924,28.106
	c10.44,2.5,20.838,3.767,30.911,3.767c69.686,0,126.38-56.693,126.38-126.38S403.459,204.152,333.772,204.152z M300.289,432.14
	c-10.564-3.513-20.624-8.722-29.701-15.392c21.989-23.409,34.02-53.754,34.02-86.216c0-32.082-12.287-62.931-34.029-86.262
	c9.018-6.591,19.055-11.771,29.634-15.267c23.77,28.401,36.801,64.214,36.801,101.529
	C337.013,367.708,323.988,403.671,300.289,432.14z M226.835,330.532c0-27.329,10.538-53.607,29.163-73.394
	c18.63,19.796,29.166,46.07,29.166,73.394c0,27.649-10.309,53.483-29.146,73.334C237.374,384.104,226.835,357.871,226.835,330.532z
	 M333.772,437.468c-4.064,0-8.204-0.254-12.376-0.739c22.687-30.593,35.06-67.821,35.06-106.198
	c0-38.535-12.379-75.654-35.141-106.184c4.153-0.491,8.313-0.753,12.458-0.753c58.964,0,106.937,47.972,106.937,106.937
	S392.736,437.468,333.772,437.468z"/>
<g>
</g>
<g>
</g>
<g>
</g>
<g>
</g>
<g>
</g>
<g>
</g>
<g>
</g>
<g>
</g>
<g>
</g>
<g>
</g>
<g>
</g>
<g>
</g>
<g>
</g>
<g>
</g>
<g>
</g>
</svg>
